<svg width="100" height="90" viewBox="0 0 100 90" fill="none" xmlns="http://www.w3.org/2000/svg">
<path d="M6.86724 30.1745C13.3006 12.5664 30.1729 0 49.9744 0C69.7759 0 86.6482 12.5664 93.0816 30.1745H89.3392C83.0802 14.5408 67.814 3.50064 49.9744 3.50064C32.1348 3.50064 16.8686 14.5408 10.6096 30.1745H6.86724Z" fill="#020617"/>
<path d="M8.45266 65.5913C13.7655 76.8671 23.5184 85.6303 35.4512 89.6163H64.4976C76.4304 85.6303 86.1833 76.8671 91.4962 65.5913H87.5956C82.6361 75.1257 74.1725 82.5387 63.916 86.1156H36.0328C25.7764 82.5387 17.3127 75.1257 12.3532 65.5913H8.45266Z" fill="#020617"/>
<path d="M93.3899 63.238V40.3248H99.732V63.238H93.3899Z" fill="#020617"/>
<path d="M96.5759 37.3711C95.633 37.3711 94.8241 37.0579 94.1492 36.4313C93.4842 35.7948 93.1517 35.034 93.1517 34.1489C93.1517 33.2738 93.4842 32.5229 94.1492 31.8964C94.8241 31.2599 95.633 30.9417 96.5759 30.9417C97.5187 30.9417 98.3227 31.2599 98.9876 31.8964C99.6625 32.5229 100 33.2738 100 34.1489C100 35.034 99.6625 35.7948 98.9876 36.4313C98.3227 37.0579 97.5187 37.3711 96.5759 37.3711Z" fill="#020617"/>
<path d="M63.0974 32.687H55.1474V63.238H61.4002V43.2784H61.6533L69.5437 63.0888H73.8016L81.692 43.353H81.9451V63.238H88.1979V32.687H80.2479L71.8513 53.2135H71.494L63.0974 32.687Z" fill="#020617"/>
<path fill-rule="evenodd" clip-rule="evenodd" d="M37.2301 63.6706C35.7711 63.6706 34.4709 63.417 33.3296 62.9098C32.1882 62.3927 31.285 61.6319 30.62 60.6275C29.965 59.6131 29.6374 58.3501 29.6374 56.8384C29.6374 55.5655 29.8707 54.4964 30.3372 53.6312C30.8036 52.766 31.4388 52.0698 32.2428 51.5427C33.0467 51.0156 33.9598 50.6178 34.9821 50.3493C36.0143 50.0808 37.0961 49.8919 38.2276 49.7825C39.5575 49.6432 40.6294 49.5139 41.4433 49.3946C42.2572 49.2653 42.8477 49.0764 43.2149 48.8277C43.5822 48.5791 43.7658 48.2111 43.7658 47.7238V47.6343C43.7658 46.6896 43.468 45.9586 42.8725 45.4415C42.2869 44.9243 41.4532 44.6658 40.3714 44.6658C39.23 44.6658 38.3219 44.9194 37.647 45.4266C36.9721 45.9238 36.5254 46.5503 36.3071 47.3062L30.4414 46.8288C30.7391 45.4365 31.3247 44.2332 32.1981 43.2188C33.0715 42.1944 34.198 41.4088 35.5776 40.8618C36.9671 40.3049 38.575 40.0264 40.4012 40.0264C41.6716 40.0264 42.8874 40.1756 44.0486 40.4739C45.2198 40.7723 46.257 41.2347 47.1601 41.8613C48.0732 42.4878 48.7928 43.2934 49.3188 44.2779C49.8449 45.2525 50.1079 46.4211 50.1079 47.7835V63.238H44.0933V60.0606H43.9147C43.5474 60.7766 43.0561 61.4081 42.4408 61.9551C41.8254 62.4922 41.086 62.9148 40.2225 63.2231C39.359 63.5215 38.3616 63.6706 37.2301 63.6706ZM39.0464 59.2849C39.9794 59.2849 40.8031 59.1009 41.5177 58.7329C42.2323 58.355 42.7931 57.8478 43.2 57.2114C43.607 56.5749 43.8104 55.8539 43.8104 55.0483V52.6168C43.6119 52.7461 43.339 52.8654 42.9916 52.9748C42.6542 53.0742 42.272 53.1687 41.8453 53.2582C41.4185 53.3378 40.9917 53.4124 40.5649 53.482C40.1382 53.5417 39.7511 53.5964 39.4037 53.6461C38.6593 53.7555 38.0092 53.9295 37.4534 54.1682C36.8976 54.4069 36.4659 54.7301 36.1582 55.1378C35.8505 55.5356 35.6967 56.0329 35.6967 56.6296C35.6967 57.4948 36.0093 58.1561 36.6346 58.6136C37.2698 59.0611 38.0737 59.2849 39.0464 59.2849Z" fill="#020617"/>
<path d="M25.5025 63.238V32.687H19.0859V51.9007H18.8179L5.65729 32.687H0V63.238H6.44633V44.0094H6.66964L19.9345 63.238H25.5025Z" fill="#020617"/>
</svg>
