<?xml version="1.0" encoding="UTF-8"?>
<svg version="1.1" xmlns="http://www.w3.org/2000/svg" viewBox="0 0 831 722">
 <g transform="translate(0,0)">
<path d="M0 0 C274.23 0 548.46 0 831 0 C831 238.26 831 476.52 831 722 C556.77 722 282.54 722 0 722 C0 483.74 0 245.48 0 0 Z " fill="#0A0A0A" transform="translate(0,0)"/>
<path d="M0 0 C19.8 0 39.6 0 60 0 C62.95638739 5.91277477 65.705008 11.45159275 68.13671875 17.5234375 C68.41323273 18.20991867 68.6897467 18.89639984 68.97463989 19.60368347 C69.57046732 21.08403725 70.16445669 22.56513195 70.75674438 24.04690552 C72.0556067 27.29574349 73.3641268 30.54066602 74.67210388 33.7858429 C75.37057681 35.51881618 76.06861863 37.25196328 76.76625061 38.98527527 C80.7428599 48.86022739 84.77684738 58.71156579 88.8125 68.5625 C89.56514428 70.40061834 90.31774827 72.23875318 91.0703125 74.0769043 C92.21286818 76.86748761 93.35549583 79.65804134 94.49835205 82.44850159 C97.30046353 89.29033736 100.10004637 96.13320429 102.8984375 102.9765625 C103.50304054 104.45499886 103.50304054 104.45499886 104.11985779 105.96330261 C107.25382922 113.62682453 107.25382922 113.62682453 108.80899048 117.43045044 C109.52855122 119.19028272 110.24825934 120.95005475 110.96812439 122.70976257 C111.65501141 124.38944353 112.34127694 126.06937879 113.02687073 127.74958801 C114.68957629 131.82006065 116.36691783 135.88342913 118.07275391 139.93603516 C118.56483086 141.1111541 118.56483086 141.1111541 119.06684875 142.31001282 C119.68492966 143.78405187 120.30723102 145.25633103 120.93449402 146.72648621 C122.15863979 149.6530681 123 151.79311748 123 155 C124.32 155 125.64 155 127 155 C127.12755173 154.27290833 127.25510345 153.54581665 127.38652039 152.79669189 C127.97507261 150.1136374 128.77499796 147.79026649 129.81567383 145.25292969 C130.19228653 144.3284201 130.56889923 143.40391052 130.95692444 142.4513855 C131.36945969 141.45164703 131.78199493 140.45190857 132.20703125 139.421875 C132.63942612 138.36388702 133.07182098 137.30589905 133.51731873 136.21585083 C134.94490664 132.72552317 136.37871578 129.23778633 137.8125 125.75 C138.81326407 123.3063319 139.81358392 120.86248183 140.81347656 118.41845703 C142.86963474 113.39359743 144.92838484 108.3698076 146.98876953 103.34667969 C151.01432199 93.53120662 155.01793372 83.70679856 159.02310181 73.88299561 C161.05756222 68.89509359 163.09540005 63.90857174 165.1328125 58.921875 C168.05662708 51.76545375 170.97476892 44.60676086 173.88647461 37.44540405 C175.56388573 33.32095031 177.24383855 29.19753458 178.92419434 25.07427979 C179.7181067 23.1243642 180.5108516 21.17397282 181.30236816 19.2230835 C182.38867874 16.54592522 183.47902131 13.87044359 184.5703125 11.1953125 C184.89015106 10.40408997 185.20998962 9.61286743 185.53952026 8.79766846 C186.83059132 5.64263303 188.10258115 2.84612828 190 0 C209.8 0 229.6 0 250 0 C250 76.23 250 152.46 250 231 C234.49 231 218.98 231 203 231 C203 181.5 203 132 203 81 C202.01 81 201.02 81 200 81 C199.83097388 81.60045796 199.66194777 82.20091593 199.48779964 82.81956959 C197.6405502 89.19744654 195.40264293 95.31770204 192.90258789 101.46557617 C192.30173874 102.95852203 192.30173874 102.95852203 191.68875122 104.48162842 C190.3707684 107.75372422 189.04666096 111.02330555 187.72265625 114.29296875 C186.79117477 116.60319847 185.86014783 118.91361151 184.92955017 121.22419739 C182.72646358 126.69182991 180.51977184 132.15799488 178.31099361 137.62333041 C174.16426981 147.88395638 170.02343385 158.1469572 165.88611984 168.41138077 C164.94604 170.74357575 164.00567523 173.0756559 163.06502151 175.40761948 C156.99814591 190.45236558 150.99491922 205.51747266 145.23097229 220.68119812 C144.80726852 221.79227432 144.38356476 222.90335052 143.94702148 224.0480957 C143.58994614 224.99272171 143.23287079 225.93734772 142.86497498 226.91059875 C142 229 142 229 141 230 C138.55169574 230.08843793 136.13179401 230.11528752 133.68359375 230.09765625 C132.95253922 230.0962413 132.22148468 230.09482635 131.46827698 230.09336853 C129.12464368 230.08775408 126.78110461 230.07519922 124.4375 230.0625 C122.85221492 230.05748686 121.26692834 230.05292363 119.68164062 230.04882812 C115.7877239 230.03777997 111.89387795 230.02050572 108 230 C107.71624512 229.14768799 107.43249023 228.29537598 107.14013672 227.41723633 C102.02629009 212.37787254 95.96851616 197.69512241 90.04056168 182.963974 C88.4934916 179.11730273 86.95036695 175.26904958 85.40698242 171.42089844 C83.50476618 166.67871531 81.60219206 161.93667724 79.69786072 157.19534302 C75.40654717 146.51072041 71.12660556 135.82160959 66.85546875 125.12890625 C66.29134858 123.71689054 65.72722107 122.30487777 65.16308594 120.89286804 C63.01986999 115.52822114 60.87685337 110.16349478 58.73468018 104.7984314 C57.27851534 101.1516921 55.82094752 97.50551443 54.36328125 93.859375 C53.93234665 92.77946793 53.50141205 91.69956085 53.05741882 90.58692932 C52.66633438 89.60917038 52.27524994 88.63141144 51.87231445 87.62402344 C51.53263138 86.77370544 51.1929483 85.92338745 50.8429718 85.04730225 C50.02313402 82.98544286 50.02313402 82.98544286 49 81 C48.67 130.5 48.34 180 48 231 C32.16 231 16.32 231 0 231 C0 154.77 0 78.54 0 0 Z " fill="#F7F7F7" transform="translate(444,268)"/>
<path d="M0 0 C14.19 0 28.38 0 43 0 C49.14702628 8.6058368 55.19254089 17.17780356 61 26 C65.24076277 32.4045784 69.48907657 38.78224068 74 45 C79.26069456 52.25122763 84.16960286 59.72829361 89.1171875 67.1953125 C92.66064746 72.53055976 96.2389993 77.81591795 100 83 C104.5109901 89.21785123 108.75711308 95.59675079 113 102 C118.07539987 109.65751764 123.21503223 117.23506559 128.61328125 124.66796875 C130.44717087 127.20366933 132.22175006 129.77488294 133.98046875 132.36328125 C134.48344482 133.10320312 134.9864209 133.843125 135.50463867 134.60546875 C136.48127308 136.04690142 137.45426107 137.49081332 138.4230957 138.9375 C140.68119417 142.52676137 140.68119417 142.52676137 144 145 C144 97.15 144 49.3 144 0 C160.17 0 176.34 0 193 0 C193 76.23 193 152.46 193 231 C178.81 231 164.62 231 150 231 C139.67699055 220.13367426 139.67699055 220.13367426 136.22998047 211.81591797 C134.49313106 207.83957396 132.12804106 204.53757479 129.5625 201.0625 C128.68199606 199.7919642 127.80580705 198.518429 126.93359375 197.2421875 C123.3463095 192.04646394 119.73394938 186.86818471 116.125 181.6875 C109.52957845 172.21970316 102.99478179 162.71234114 96.49072266 153.18164062 C92.78078395 147.75222492 89.04864405 142.33802687 85.32080078 136.92089844 C84.02354442 135.03424168 82.72825495 133.14625084 81.43359375 131.2578125 C75.21685087 122.19449874 68.95073391 113.16638451 62.6574707 104.15600586 C59.09652653 99.04921857 55.5990125 93.91829382 52.23754883 88.67749023 C51.08950541 86.85547771 51.08950541 86.85547771 49 86 C49 133.85 49 181.7 49 231 C32.83 231 16.66 231 0 231 C0 154.77 0 78.54 0 0 Z " fill="#F7F7F7" transform="translate(28,268)"/>
<path d="M0 0 C3.93151924 0.00314812 7.86227501 -0.0203315 11.79370117 -0.0456543 C27.55808816 -0.08542331 42.82993683 0.8427245 58.40112305 3.31567383 C60.32178589 3.61380981 60.32178589 3.61380981 62.28125 3.91796875 C65.29175714 4.41862251 68.28301179 4.97049518 71.27612305 5.56567383 C72.34016357 5.77546875 73.4042041 5.98526367 74.50048828 6.20141602 C104.17073929 12.23781497 132.2217316 22.02393649 159.40112305 35.31567383 C160.30314453 35.75637207 161.20516602 36.19707031 162.13452148 36.65112305 C182.62533434 46.77639279 201.57608189 59.03122303 219.40112305 73.31567383 C220.41432617 74.11618164 221.4275293 74.91668945 222.47143555 75.74145508 C228.85524397 80.86123306 234.88576757 86.33208763 240.87182617 91.90405273 C242.40570329 93.31990163 243.95500388 94.71660216 245.51049805 96.10864258 C251.89744474 101.83953438 257.78108623 107.82324567 263.40112305 114.31567383 C264.38425253 115.41444578 265.36871174 116.5120289 266.35424805 117.60864258 C288.46703327 142.4028954 330.40112305 192.5456657 330.40112305 227.31567383 C321.16112305 227.31567383 311.92112305 227.31567383 302.40112305 227.31567383 C300.64799805 223.43817383 298.89487305 219.56067383 297.08862305 215.56567383 C285.84149047 191.0848186 272.32362449 168.33092434 255.40112305 147.31567383 C254.70116211 146.42364258 254.00120117 145.53161133 253.2800293 144.61254883 C241.4731614 129.79438802 227.96974225 115.43638475 213.40112305 103.31567383 C212.58780518 102.63166504 212.58780518 102.63166504 211.75805664 101.93383789 C181.02254015 76.15146496 145.47188852 56.05241344 107.40112305 43.31567383 C106.33506836 42.9212207 105.26901367 42.52676758 104.1706543 42.12036133 C87.2435104 36.03806555 69.31780158 32.76941942 51.58862305 30.00317383 C50.5711499 29.84389404 49.55367676 29.68461426 48.50537109 29.52050781 C34.51010732 27.45249481 20.5213999 27.0771082 6.40112305 27.06567383 C5.53039154 27.06466675 4.65966003 27.06365967 3.76254272 27.06262207 C-74.81001943 27.12357342 -153.68233981 56.58783925 -210.75512695 111.38598633 C-211.85834895 112.50425226 -212.95530084 113.62875886 -214.04418945 114.76098633 C-215.73431737 116.45111424 -217.51832344 117.96668514 -219.34887695 119.50317383 C-228.85640285 127.74669339 -236.6579024 137.6537058 -244.2800293 147.60717773 C-245.52119788 149.21504477 -246.78777114 150.80320916 -248.0559082 152.38989258 C-265.99168185 175.01968129 -279.96764839 200.52497786 -290.59887695 227.31567383 C-300.16887695 227.31567383 -309.73887695 227.31567383 -319.59887695 227.31567383 C-305.96272668 188.98703524 -285.73520509 154.42189798 -259.59887695 123.31567383 C-258.76743164 122.29860352 -257.93598633 121.2815332 -257.0793457 120.23364258 C-245.0213827 105.64966047 -231.57062935 91.905182 -216.59887695 80.31567383 C-214.74157291 78.73602191 -212.88760562 77.15244126 -211.03637695 75.56567383 C-163.40546134 36.03566842 -103.72679765 10.89518209 -42.59887695 2.31567383 C-41.42397705 2.13182129 -40.24907715 1.94796875 -39.03857422 1.75854492 C-26.06184488 -0.06386076 -13.08522059 -0.02184511 0 0 Z " fill="#F7F7F7" transform="translate(399.598876953125,21.684326171875)"/>
<path d="M0 0 C8.99419414 8.38750314 15.70480902 19.52274977 16.83724022 31.94313431 C16.93319894 35.28234478 16.93776924 38.60925061 16.90698242 41.94970703 C16.9074205 43.2093779 16.90785858 44.46904877 16.90830994 45.76689148 C16.90916377 49.18987561 16.89163858 52.61253848 16.87058806 56.03544855 C16.851718 59.62419116 16.85006274 63.21294273 16.84651184 66.80172729 C16.83722149 73.58362233 16.81264895 80.3653707 16.78246337 87.14720142 C16.74882507 94.87398864 16.73240975 102.60078319 16.71737707 110.32762551 C16.68609631 126.20940159 16.63112242 142.09097587 16.56640625 157.97265625 C1.71640625 157.97265625 -13.13359375 157.97265625 -28.43359375 157.97265625 C-28.43359375 150.05265625 -28.43359375 142.13265625 -28.43359375 133.97265625 C-29.09359375 133.97265625 -29.75359375 133.97265625 -30.43359375 133.97265625 C-30.71203125 134.96265625 -30.71203125 134.96265625 -30.99609375 135.97265625 C-36.65526603 147.78310275 -47.79688609 154.438298 -59.61499023 158.77270508 C-66.12745827 160.95732034 -72.03438149 161.39948254 -78.87109375 161.28515625 C-79.83080078 161.28837891 -80.79050781 161.29160156 -81.77929688 161.29492188 C-98.3330157 161.17230174 -113.09619555 156.48225498 -125.43359375 145.1328125 C-136.5234762 133.44541483 -138.01640433 118.94820515 -137.7421875 103.60546875 C-137.2700295 91.71335645 -132.72689272 81.99095392 -124.109375 73.75 C-111.08354562 62.80993922 -95.49348838 58.60684278 -78.93359375 56.47265625 C-77.9688916 56.3444751 -77.00418945 56.21629395 -76.01025391 56.08422852 C-70.93952598 55.41432724 -65.86560699 54.77297324 -60.78857422 54.15283203 C-57.66882438 53.77046072 -54.55113302 53.37260372 -51.43359375 52.97265625 C-50.29921875 52.83214844 -49.16484375 52.69164062 -47.99609375 52.546875 C-42.13313702 51.72060046 -37.96348569 50.89040063 -33.43359375 46.97265625 C-31.20524527 42.51595928 -31.94152286 36.80852533 -32.43359375 31.97265625 C-34.09176585 27.22121244 -36.71508441 24.13697658 -40.99609375 21.53515625 C-49.50740413 17.66637881 -61.37572085 17.46283712 -70.43359375 19.97265625 C-78.22133064 23.17848192 -83.86394794 29.52296064 -87.43359375 36.97265625 C-97.51008309 37.18483423 -107.2902216 36.56516963 -117.30859375 35.47265625 C-118.69003482 35.32746364 -120.07154525 35.18292948 -121.453125 35.0390625 C-124.78068387 34.69001786 -128.10740268 34.33446373 -131.43359375 33.97265625 C-128.40043831 18.19578742 -120.5864758 5.800002 -107.62109375 -3.83984375 C-77.29149957 -23.66341863 -28.32597317 -23.5973998 0 0 Z " fill="#F8F8F8" transform="translate(389.43359375,341.02734375)"/>
<path d="M0 0 C9.57 0 19.14 0 29 0 C30.77375 3.155625 32.5475 6.31125 34.375 9.5625 C46.06556657 30.13050593 59.80118632 49.0713454 75.77734375 66.5546875 C77.20549416 68.12590394 78.61608568 69.71336236 80.00390625 71.3203125 C90.54011623 83.43595434 102.5575715 94.0793894 115.3515625 103.74121094 C116.95081696 104.96244257 118.52285877 106.21905614 120.09375 107.4765625 C141.11172729 124.19540807 165.44504409 137.40522772 190.15744209 147.78153992 C192.0046573 148.57334718 193.83469267 149.40697397 195.64117241 150.2877655 C205.84760778 154.87271852 215.49319551 154.74928571 226.50830078 154.7421875 C228.55507054 154.75881592 230.60182478 154.77745752 232.64855957 154.79794312 C238.17841226 154.84613313 243.70789416 154.86219982 249.2379365 154.86921692 C252.70688133 154.87501935 256.17573306 154.88769144 259.64464951 154.90270996 C271.78773045 154.95489077 283.9305407 154.98025862 296.07373047 154.98144531 C307.32403721 154.98327301 318.57294428 155.04464261 329.82286465 155.13408089 C339.53308002 155.20849764 349.24284039 155.23953797 358.9533385 155.23832512 C364.72979799 155.23835322 370.50493555 155.25491829 376.28110123 155.31585693 C410.47641218 155.8039899 410.47641218 155.8039899 442.25303268 144.48406982 C446.25260583 142.32327025 450.36950319 140.4286985 454.48591805 138.50265503 C479.1125512 126.75947656 501.56643135 110.99965327 522 93 C522.78632812 92.32453125 523.57265625 91.6490625 524.3828125 90.953125 C536.88229969 80.0213701 548.87737976 68.17486069 559 55 C560.22976563 53.49566406 560.22976563 53.49566406 561.484375 51.9609375 C574.00192539 36.60359833 584.46174072 19.80304302 594.09887695 2.52441406 C595 1 595 1 596 0 C598.14558827 -0.08775605 600.29404421 -0.10695219 602.44140625 -0.09765625 C603.74658203 -0.09443359 605.05175781 -0.09121094 606.39648438 -0.08789062 C607.7851569 -0.07953401 609.17382877 -0.07106905 610.5625 -0.0625 C611.95507656 -0.05748666 613.34765481 -0.05292347 614.74023438 -0.04882812 C618.1601987 -0.03699434 621.58007844 -0.0205088 625 0 C615.81800444 28.70297419 594.64466714 55.61346634 575 78 C574.39027344 78.70898438 573.78054688 79.41796875 573.15234375 80.1484375 C563.11004479 91.78136065 552.70032525 103.01678733 541 113 C540.10023438 113.78890625 539.20046875 114.5778125 538.2734375 115.390625 C523.26487157 128.45449461 507.01935684 139.72659687 490 150 C489.39414062 150.36786621 488.78828125 150.73573242 488.1640625 151.11474609 C484.16958187 153.52270921 480.11051215 155.79775952 476 158 C474.86763916 158.60811523 474.86763916 158.60811523 473.71240234 159.22851562 C432.54686936 181.09492111 432.54686936 181.09492111 414.35498047 181.1942749 C413.46083529 181.20289055 412.56669012 181.2115062 411.64544964 181.22038293 C408.6360492 181.2478803 405.6266464 181.26807344 402.6171875 181.28808594 C400.4635343 181.30580667 398.30988341 181.32380864 396.15623474 181.34207153 C376.41314977 181.50167849 356.66935964 181.58559273 336.92576599 181.65206528 C322.35374982 181.70212207 307.78287256 181.78772304 293.21137238 181.92068648 C282.94518136 182.01116766 272.67929921 182.05859426 262.41272736 182.07564378 C256.29508806 182.08702957 250.1789027 182.11672485 244.06170654 182.19359589 C196.0316357 182.77105361 196.0316357 182.77105361 175.73760986 171.48638153 C171.65877139 169.27178176 167.43346316 167.40523455 163.20294189 165.50120163 C139.37626057 154.62706815 117.47122983 140.24953652 97 124 C96.07832031 123.27296875 95.15664062 122.5459375 94.20703125 121.796875 C76.35435157 107.47351295 58.98850955 91.13227559 45 73 C44.12617639 71.94607277 43.24829471 70.89550185 42.3671875 69.84765625 C27.2445181 51.70661292 14.13809783 31.31029166 3.4375 10.25 C3.09009766 9.569375 2.74269531 8.88875 2.38476562 8.1875 C0.94039266 5.26909549 0 3.30031318 0 0 Z " fill="#F8F8F8" transform="translate(93,517)"/>
<path d="M0 0 C15.84 0 31.68 0 48 0 C48 57.09 48 114.18 48 173 C32.16 173 16.32 173 0 173 C0 115.91 0 58.82 0 0 Z " fill="#F7F7F7" transform="translate(733,326)"/>
<path d="M0 0 C0.11771717 3.79139846 0.18775198 7.58231735 0.25 11.375 C0.30027344 12.96634766 0.30027344 12.96634766 0.3515625 14.58984375 C0.48327593 25.3244886 -2.29191643 33.21226753 -9.73046875 41.0234375 C-17.81203531 48.06177257 -28.01391631 50.44841202 -38.515625 50.1875 C-46.64386756 49.57404773 -52.68691613 47.6712551 -58.3125 41.4375 C-62.13523365 35.91577362 -61.55062365 29.46384288 -61 23 C-58.17954147 16.5364492 -52.54904441 12.42249149 -46.10546875 9.83984375 C-38.06104989 7.33013775 -29.97698387 6.21676563 -21.64257812 5.15039062 C-15.44752769 4.32106054 -9.93451846 3.00503066 -4.08203125 0.76953125 C-2 0 -2 0 0 0 Z " fill="#0C0C0C" transform="translate(359,419)"/>
<path d="M0 0 C6.14848435 5.602639 9.53880333 10.3880333 10.375 18.75 C10.16563551 24.83320157 8.19053804 30.46258718 4.19921875 35.0859375 C-3.34363446 42.02829172 -10.92175719 43.84261458 -21.0390625 43.4765625 C-27.64034383 42.6823255 -32.16473602 40.07097477 -36.64453125 35.21875 C-41.95207277 28.24399803 -43.02407196 21.55209035 -42 13 C-39.65820853 5.62222009 -34.47249995 0.95541664 -28 -3 C-18.41003926 -7.08461291 -8.42670979 -6.01708864 0 0 Z " fill="#F7F7F7" transform="translate(773,260)"/>
</g>
</svg>
